<?xml version="1.0" encoding="UTF-8" standalone="no"?>
<!DOCTYPE svg PUBLIC "-//W3C//DTD SVG 1.1//EN"
 "http://www.w3.org/Graphics/SVG/1.1/DTD/svg11.dtd">
<!-- Generated by graphviz version 2.43.0 (0)
 -->
<!-- Title: %3 Pages: 1 -->
<svg width="1243pt" height="404pt"
 viewBox="0.00 0.00 1242.62 404.00" xmlns="http://www.w3.org/2000/svg" xmlns:xlink="http://www.w3.org/1999/xlink">
<g id="graph0" class="graph" transform="scale(1 1) rotate(0) translate(4 400)">
<title>%3</title>
<polygon fill="white" stroke="transparent" points="-4,4 -4,-400 1238.62,-400 1238.62,4 -4,4"/>
<!-- [root] data.google_project.default (expand) -->
<g id="node1" class="node">
<title>[root] data.google_project.default (expand)</title>
<polygon fill="none" stroke="black" points="996.85,-108 784.85,-108 784.85,-72 996.85,-72 996.85,-108"/>
<text text-anchor="middle" x="890.85" y="-86.3" font-family="Times,serif" font-size="14.00">data.google_project.default</text>
</g>
<!-- [root] provider[&quot;registry.terraform.io/hashicorp/google&quot;] -->
<g id="node5" class="node">
<title>[root] provider[&quot;registry.terraform.io/hashicorp/google&quot;]</title>
<polygon fill="none" stroke="black" points="890.85,-36 547.32,-18 890.85,0 1234.38,-18 890.85,-36"/>
<text text-anchor="middle" x="890.85" y="-14.3" font-family="Times,serif" font-size="14.00">provider[&quot;registry.terraform.io/hashicorp/google&quot;]</text>
</g>
<!-- [root] data.google_project.default (expand)&#45;&gt;[root] provider[&quot;registry.terraform.io/hashicorp/google&quot;] -->
<g id="edge1" class="edge">
<title>[root] data.google_project.default (expand)&#45;&gt;[root] provider[&quot;registry.terraform.io/hashicorp/google&quot;]</title>
<path fill="none" stroke="black" d="M890.85,-71.7C890.85,-63.98 890.85,-54.71 890.85,-46.11"/>
<polygon fill="black" stroke="black" points="894.35,-46.1 890.85,-36.1 887.35,-46.1 894.35,-46.1"/>
</g>
<!-- [root] google_iam_deny_policy.default (expand) -->
<g id="node2" class="node">
<title>[root] google_iam_deny_policy.default (expand)</title>
<polygon fill="none" stroke="black" points="568.35,-252 329.35,-252 329.35,-216 568.35,-216 568.35,-252"/>
<text text-anchor="middle" x="448.85" y="-230.3" font-family="Times,serif" font-size="14.00">google_iam_deny_policy.default</text>
</g>
<!-- [root] google_service_account.default (expand) -->
<g id="node3" class="node">
<title>[root] google_service_account.default (expand)</title>
<polygon fill="none" stroke="black" points="1010.35,-180 771.35,-180 771.35,-144 1010.35,-144 1010.35,-180"/>
<text text-anchor="middle" x="890.85" y="-158.3" font-family="Times,serif" font-size="14.00">google_service_account.default</text>
</g>
<!-- [root] google_iam_deny_policy.default (expand)&#45;&gt;[root] google_service_account.default (expand) -->
<g id="edge2" class="edge">
<title>[root] google_iam_deny_policy.default (expand)&#45;&gt;[root] google_service_account.default (expand)</title>
<path fill="none" stroke="black" d="M556.41,-215.97C621.92,-205.59 705.66,-192.33 772.97,-181.67"/>
<polygon fill="black" stroke="black" points="773.87,-185.07 783.2,-180.05 772.77,-178.16 773.87,-185.07"/>
</g>
<!-- [root] provider[&quot;registry.terraform.io/hashicorp/google&#45;beta&quot;] -->
<g id="node4" class="node">
<title>[root] provider[&quot;registry.terraform.io/hashicorp/google&#45;beta&quot;]</title>
<polygon fill="none" stroke="black" points="376.85,-180 0.15,-162 376.85,-144 753.56,-162 376.85,-180"/>
<text text-anchor="middle" x="376.85" y="-158.3" font-family="Times,serif" font-size="14.00">provider[&quot;registry.terraform.io/hashicorp/google&#45;beta&quot;]</text>
</g>
<!-- [root] google_iam_deny_policy.default (expand)&#45;&gt;[root] provider[&quot;registry.terraform.io/hashicorp/google&#45;beta&quot;] -->
<g id="edge3" class="edge">
<title>[root] google_iam_deny_policy.default (expand)&#45;&gt;[root] provider[&quot;registry.terraform.io/hashicorp/google&#45;beta&quot;]</title>
<path fill="none" stroke="black" d="M431.06,-215.7C422.03,-206.92 410.93,-196.13 401.13,-186.61"/>
<polygon fill="black" stroke="black" points="403.56,-184.08 393.95,-179.62 398.68,-189.1 403.56,-184.08"/>
</g>
<!-- [root] google_service_account.default (expand)&#45;&gt;[root] data.google_project.default (expand) -->
<g id="edge4" class="edge">
<title>[root] google_service_account.default (expand)&#45;&gt;[root] data.google_project.default (expand)</title>
<path fill="none" stroke="black" d="M890.85,-143.7C890.85,-135.98 890.85,-126.71 890.85,-118.11"/>
<polygon fill="black" stroke="black" points="894.35,-118.1 890.85,-108.1 887.35,-118.1 894.35,-118.1"/>
</g>
<!-- [root] provider[&quot;registry.terraform.io/hashicorp/google&#45;beta&quot;] (close) -->
<g id="node6" class="node">
<title>[root] provider[&quot;registry.terraform.io/hashicorp/google&#45;beta&quot;] (close)</title>
<ellipse fill="none" stroke="black" cx="491.85" cy="-306" rx="328.44" ry="18"/>
<text text-anchor="middle" x="491.85" y="-302.3" font-family="Times,serif" font-size="14.00">[root] provider[&quot;registry.terraform.io/hashicorp/google&#45;beta&quot;] (close)</text>
</g>
<!-- [root] provider[&quot;registry.terraform.io/hashicorp/google&#45;beta&quot;] (close)&#45;&gt;[root] google_iam_deny_policy.default (expand) -->
<g id="edge5" class="edge">
<title>[root] provider[&quot;registry.terraform.io/hashicorp/google&#45;beta&quot;] (close)&#45;&gt;[root] google_iam_deny_policy.default (expand)</title>
<path fill="none" stroke="black" d="M481.23,-287.7C476.23,-279.56 470.16,-269.69 464.64,-260.7"/>
<polygon fill="black" stroke="black" points="467.58,-258.79 459.36,-252.1 461.61,-262.46 467.58,-258.79"/>
</g>
<!-- [root] provider[&quot;registry.terraform.io/hashicorp/google&quot;] (close) -->
<g id="node7" class="node">
<title>[root] provider[&quot;registry.terraform.io/hashicorp/google&quot;] (close)</title>
<ellipse fill="none" stroke="black" cx="890.85" cy="-234" rx="304.65" ry="18"/>
<text text-anchor="middle" x="890.85" y="-230.3" font-family="Times,serif" font-size="14.00">[root] provider[&quot;registry.terraform.io/hashicorp/google&quot;] (close)</text>
</g>
<!-- [root] provider[&quot;registry.terraform.io/hashicorp/google&quot;] (close)&#45;&gt;[root] google_service_account.default (expand) -->
<g id="edge6" class="edge">
<title>[root] provider[&quot;registry.terraform.io/hashicorp/google&quot;] (close)&#45;&gt;[root] google_service_account.default (expand)</title>
<path fill="none" stroke="black" d="M890.85,-215.7C890.85,-207.98 890.85,-198.71 890.85,-190.11"/>
<polygon fill="black" stroke="black" points="894.35,-190.1 890.85,-180.1 887.35,-190.1 894.35,-190.1"/>
</g>
<!-- [root] root -->
<g id="node8" class="node">
<title>[root] root</title>
<ellipse fill="none" stroke="black" cx="669.85" cy="-378" rx="58.49" ry="18"/>
<text text-anchor="middle" x="669.85" y="-374.3" font-family="Times,serif" font-size="14.00">[root] root</text>
</g>
<!-- [root] root&#45;&gt;[root] provider[&quot;registry.terraform.io/hashicorp/google&#45;beta&quot;] (close) -->
<g id="edge7" class="edge">
<title>[root] root&#45;&gt;[root] provider[&quot;registry.terraform.io/hashicorp/google&#45;beta&quot;] (close)</title>
<path fill="none" stroke="black" d="M635.11,-363.34C609.39,-353.22 573.88,-339.26 544.66,-327.77"/>
<polygon fill="black" stroke="black" points="545.6,-324.37 535.01,-323.97 543.04,-330.89 545.6,-324.37"/>
</g>
<!-- [root] root&#45;&gt;[root] provider[&quot;registry.terraform.io/hashicorp/google&quot;] (close) -->
<g id="edge8" class="edge">
<title>[root] root&#45;&gt;[root] provider[&quot;registry.terraform.io/hashicorp/google&quot;] (close)</title>
<path fill="none" stroke="black" d="M720.29,-368.76C753.64,-361.37 796.93,-347.87 828.85,-324 850.76,-307.62 867.76,-281.18 878.38,-261.37"/>
<polygon fill="black" stroke="black" points="881.61,-262.74 883.07,-252.25 875.38,-259.54 881.61,-262.74"/>
</g>
</g>
</svg>
