<?xml version="1.0" encoding="UTF-8" standalone="no"?>
<!DOCTYPE svg PUBLIC "-//W3C//DTD SVG 1.1//EN"
 "http://www.w3.org/Graphics/SVG/1.1/DTD/svg11.dtd">
<!-- Generated by graphviz version 2.43.0 (0)
 -->
<!-- Title: %3 Pages: 1 -->
<svg width="1084pt" height="260pt"
 viewBox="0.00 0.00 1083.50 260.00" xmlns="http://www.w3.org/2000/svg" xmlns:xlink="http://www.w3.org/1999/xlink">
<g id="graph0" class="graph" transform="scale(1 1) rotate(0) translate(4 256)">
<title>%3</title>
<polygon fill="white" stroke="transparent" points="-4,4 -4,-256 1079.5,-256 1079.5,4 -4,4"/>
<!-- [root] google_sql_database_instance.default (expand) -->
<g id="node1" class="node">
<title>[root] google_sql_database_instance.default (expand)</title>
<polygon fill="none" stroke="black" points="284,-108 0,-108 0,-72 284,-72 284,-108"/>
<text text-anchor="middle" x="142" y="-86.3" font-family="Times,serif" font-size="14.00">google_sql_database_instance.default</text>
</g>
<!-- [root] provider[&quot;registry.terraform.io/hashicorp/google&quot;] -->
<g id="node4" class="node">
<title>[root] provider[&quot;registry.terraform.io/hashicorp/google&quot;]</title>
<polygon fill="none" stroke="black" points="486,-36 142.47,-18 486,0 829.53,-18 486,-36"/>
<text text-anchor="middle" x="486" y="-14.3" font-family="Times,serif" font-size="14.00">provider[&quot;registry.terraform.io/hashicorp/google&quot;]</text>
</g>
<!-- [root] google_sql_database_instance.default (expand)&#45;&gt;[root] provider[&quot;registry.terraform.io/hashicorp/google&quot;] -->
<g id="edge1" class="edge">
<title>[root] google_sql_database_instance.default (expand)&#45;&gt;[root] provider[&quot;registry.terraform.io/hashicorp/google&quot;]</title>
<path fill="none" stroke="black" d="M225.71,-71.97C281.79,-60.56 355.03,-45.65 409.54,-34.56"/>
<polygon fill="black" stroke="black" points="410.39,-37.96 419.49,-32.53 408.99,-31.1 410.39,-37.96"/>
</g>
<!-- [root] google_sql_database_instance.mysql_instance_ha (expand) -->
<g id="node2" class="node">
<title>[root] google_sql_database_instance.mysql_instance_ha (expand)</title>
<polygon fill="none" stroke="black" points="670,-108 302,-108 302,-72 670,-72 670,-108"/>
<text text-anchor="middle" x="486" y="-86.3" font-family="Times,serif" font-size="14.00">google_sql_database_instance.mysql_instance_ha</text>
</g>
<!-- [root] google_sql_database_instance.mysql_instance_ha (expand)&#45;&gt;[root] provider[&quot;registry.terraform.io/hashicorp/google&quot;] -->
<g id="edge2" class="edge">
<title>[root] google_sql_database_instance.mysql_instance_ha (expand)&#45;&gt;[root] provider[&quot;registry.terraform.io/hashicorp/google&quot;]</title>
<path fill="none" stroke="black" d="M486,-71.7C486,-63.98 486,-54.71 486,-46.11"/>
<polygon fill="black" stroke="black" points="489.5,-46.1 486,-36.1 482.5,-46.1 489.5,-46.1"/>
</g>
<!-- [root] google_sql_database_instance.postgres_instance_ha (expand) -->
<g id="node3" class="node">
<title>[root] google_sql_database_instance.postgres_instance_ha (expand)</title>
<polygon fill="none" stroke="black" points="1075.5,-108 688.5,-108 688.5,-72 1075.5,-72 1075.5,-108"/>
<text text-anchor="middle" x="882" y="-86.3" font-family="Times,serif" font-size="14.00">google_sql_database_instance.postgres_instance_ha</text>
</g>
<!-- [root] google_sql_database_instance.postgres_instance_ha (expand)&#45;&gt;[root] provider[&quot;registry.terraform.io/hashicorp/google&quot;] -->
<g id="edge3" class="edge">
<title>[root] google_sql_database_instance.postgres_instance_ha (expand)&#45;&gt;[root] provider[&quot;registry.terraform.io/hashicorp/google&quot;]</title>
<path fill="none" stroke="black" d="M785.63,-71.97C719.79,-60.33 633.37,-45.05 570.27,-33.9"/>
<polygon fill="black" stroke="black" points="570.8,-30.44 560.35,-32.14 569.58,-37.33 570.8,-30.44"/>
</g>
<!-- [root] provider[&quot;registry.terraform.io/hashicorp/google&quot;] (close) -->
<g id="node5" class="node">
<title>[root] provider[&quot;registry.terraform.io/hashicorp/google&quot;] (close)</title>
<ellipse fill="none" stroke="black" cx="486" cy="-162" rx="304.65" ry="18"/>
<text text-anchor="middle" x="486" y="-158.3" font-family="Times,serif" font-size="14.00">[root] provider[&quot;registry.terraform.io/hashicorp/google&quot;] (close)</text>
</g>
<!-- [root] provider[&quot;registry.terraform.io/hashicorp/google&quot;] (close)&#45;&gt;[root] google_sql_database_instance.default (expand) -->
<g id="edge4" class="edge">
<title>[root] provider[&quot;registry.terraform.io/hashicorp/google&quot;] (close)&#45;&gt;[root] google_sql_database_instance.default (expand)</title>
<path fill="none" stroke="black" d="M405.35,-144.59C354.6,-134.26 288.91,-120.9 235.84,-110.09"/>
<polygon fill="black" stroke="black" points="236.24,-106.6 225.74,-108.04 234.84,-113.46 236.24,-106.6"/>
</g>
<!-- [root] provider[&quot;registry.terraform.io/hashicorp/google&quot;] (close)&#45;&gt;[root] google_sql_database_instance.mysql_instance_ha (expand) -->
<g id="edge5" class="edge">
<title>[root] provider[&quot;registry.terraform.io/hashicorp/google&quot;] (close)&#45;&gt;[root] google_sql_database_instance.mysql_instance_ha (expand)</title>
<path fill="none" stroke="black" d="M486,-143.7C486,-135.98 486,-126.71 486,-118.11"/>
<polygon fill="black" stroke="black" points="489.5,-118.1 486,-108.1 482.5,-118.1 489.5,-118.1"/>
</g>
<!-- [root] provider[&quot;registry.terraform.io/hashicorp/google&quot;] (close)&#45;&gt;[root] google_sql_database_instance.postgres_instance_ha (expand) -->
<g id="edge6" class="edge">
<title>[root] provider[&quot;registry.terraform.io/hashicorp/google&quot;] (close)&#45;&gt;[root] google_sql_database_instance.postgres_instance_ha (expand)</title>
<path fill="none" stroke="black" d="M577.85,-144.76C636.93,-134.32 713.92,-120.71 775.66,-109.8"/>
<polygon fill="black" stroke="black" points="776.59,-113.19 785.82,-108 775.37,-106.3 776.59,-113.19"/>
</g>
<!-- [root] root -->
<g id="node6" class="node">
<title>[root] root</title>
<ellipse fill="none" stroke="black" cx="486" cy="-234" rx="58.49" ry="18"/>
<text text-anchor="middle" x="486" y="-230.3" font-family="Times,serif" font-size="14.00">[root] root</text>
</g>
<!-- [root] root&#45;&gt;[root] provider[&quot;registry.terraform.io/hashicorp/google&quot;] (close) -->
<g id="edge7" class="edge">
<title>[root] root&#45;&gt;[root] provider[&quot;registry.terraform.io/hashicorp/google&quot;] (close)</title>
<path fill="none" stroke="black" d="M486,-215.7C486,-207.98 486,-198.71 486,-190.11"/>
<polygon fill="black" stroke="black" points="489.5,-190.1 486,-180.1 482.5,-190.1 489.5,-190.1"/>
</g>
</g>
</svg>
