<?xml version="1.0" encoding="UTF-8" standalone="no"?>
<!DOCTYPE svg PUBLIC "-//W3C//DTD SVG 1.1//EN"
 "http://www.w3.org/Graphics/SVG/1.1/DTD/svg11.dtd">
<!-- Generated by graphviz version 2.43.0 (0)
 -->
<!-- Title: %3 Pages: 1 -->
<svg width="1982pt" height="476pt"
 viewBox="0.00 0.00 1981.85 476.00" xmlns="http://www.w3.org/2000/svg" xmlns:xlink="http://www.w3.org/1999/xlink">
<g id="graph0" class="graph" transform="scale(1 1) rotate(0) translate(4 472)">
<title>%3</title>
<polygon fill="white" stroke="transparent" points="-4,4 -4,-472 1977.85,-472 1977.85,4 -4,4"/>
<!-- [root] google_compute_address.minecraft (expand) -->
<g id="node1" class="node">
<title>[root] google_compute_address.minecraft (expand)</title>
<polygon fill="none" stroke="black" points="819,-180 550,-180 550,-144 819,-144 819,-180"/>
<text text-anchor="middle" x="684.5" y="-158.3" font-family="Times,serif" font-size="14.00">google_compute_address.minecraft</text>
</g>
<!-- [root] provider[&quot;registry.terraform.io/hashicorp/google&quot;] -->
<g id="node12" class="node">
<title>[root] provider[&quot;registry.terraform.io/hashicorp/google&quot;]</title>
<polygon fill="none" stroke="black" points="965.5,-108 621.97,-90 965.5,-72 1309.03,-90 965.5,-108"/>
<text text-anchor="middle" x="965.5" y="-86.3" font-family="Times,serif" font-size="14.00">provider[&quot;registry.terraform.io/hashicorp/google&quot;]</text>
</g>
<!-- [root] google_compute_address.minecraft (expand)&#45;&gt;[root] provider[&quot;registry.terraform.io/hashicorp/google&quot;] -->
<g id="edge1" class="edge">
<title>[root] google_compute_address.minecraft (expand)&#45;&gt;[root] provider[&quot;registry.terraform.io/hashicorp/google&quot;]</title>
<path fill="none" stroke="black" d="M752.88,-143.97C797.28,-132.9 854.87,-118.56 898.91,-107.59"/>
<polygon fill="black" stroke="black" points="899.81,-110.97 908.66,-105.16 898.11,-104.18 899.81,-110.97"/>
</g>
<!-- [root] google_compute_disk.minecraft (expand) -->
<g id="node2" class="node">
<title>[root] google_compute_disk.minecraft (expand)</title>
<polygon fill="none" stroke="black" points="531.5,-180 289.5,-180 289.5,-144 531.5,-144 531.5,-180"/>
<text text-anchor="middle" x="410.5" y="-158.3" font-family="Times,serif" font-size="14.00">google_compute_disk.minecraft</text>
</g>
<!-- [root] google_compute_disk.minecraft (expand)&#45;&gt;[root] provider[&quot;registry.terraform.io/hashicorp/google&quot;] -->
<g id="edge3" class="edge">
<title>[root] google_compute_disk.minecraft (expand)&#45;&gt;[root] provider[&quot;registry.terraform.io/hashicorp/google&quot;]</title>
<path fill="none" stroke="black" d="M531.83,-145.23C535.09,-144.82 538.32,-144.41 541.5,-144 649.45,-130.25 772.9,-114.85 858.65,-104.22"/>
<polygon fill="black" stroke="black" points="859.16,-107.68 868.65,-102.97 858.3,-100.73 859.16,-107.68"/>
</g>
<!-- [root] local.zone (expand) -->
<g id="node13" class="node">
<title>[root] local.zone (expand)</title>
<ellipse fill="none" stroke="black" cx="410.5" cy="-90" rx="128.88" ry="18"/>
<text text-anchor="middle" x="410.5" y="-86.3" font-family="Times,serif" font-size="14.00">[root] local.zone (expand)</text>
</g>
<!-- [root] google_compute_disk.minecraft (expand)&#45;&gt;[root] local.zone (expand) -->
<g id="edge2" class="edge">
<title>[root] google_compute_disk.minecraft (expand)&#45;&gt;[root] local.zone (expand)</title>
<path fill="none" stroke="black" d="M410.5,-143.7C410.5,-135.98 410.5,-126.71 410.5,-118.11"/>
<polygon fill="black" stroke="black" points="414,-118.1 410.5,-108.1 407,-118.1 414,-118.1"/>
</g>
<!-- [root] google_compute_firewall.minecraft (expand) -->
<g id="node3" class="node">
<title>[root] google_compute_firewall.minecraft (expand)</title>
<polygon fill="none" stroke="black" points="545.5,-324 279.5,-324 279.5,-288 545.5,-288 545.5,-324"/>
<text text-anchor="middle" x="412.5" y="-302.3" font-family="Times,serif" font-size="14.00">google_compute_firewall.minecraft</text>
</g>
<!-- [root] google_compute_network.minecraft (expand) -->
<g id="node6" class="node">
<title>[root] google_compute_network.minecraft (expand)</title>
<polygon fill="none" stroke="black" points="271,-180 0,-180 0,-144 271,-144 271,-180"/>
<text text-anchor="middle" x="135.5" y="-158.3" font-family="Times,serif" font-size="14.00">google_compute_network.minecraft</text>
</g>
<!-- [root] google_compute_firewall.minecraft (expand)&#45;&gt;[root] google_compute_network.minecraft (expand) -->
<g id="edge4" class="edge">
<title>[root] google_compute_firewall.minecraft (expand)&#45;&gt;[root] google_compute_network.minecraft (expand)</title>
<path fill="none" stroke="black" d="M330.78,-287.93C300.35,-279.63 266.24,-267.92 237.5,-252 206.83,-235.01 177.26,-207.6 157.93,-187.68"/>
<polygon fill="black" stroke="black" points="160.23,-185.01 150.8,-180.18 155.16,-189.84 160.23,-185.01"/>
</g>
<!-- [root] google_compute_instance.minecraft (expand) -->
<g id="node4" class="node">
<title>[root] google_compute_instance.minecraft (expand)</title>
<polygon fill="none" stroke="black" points="518.5,-252 246.5,-252 246.5,-216 518.5,-216 518.5,-252"/>
<text text-anchor="middle" x="382.5" y="-230.3" font-family="Times,serif" font-size="14.00">google_compute_instance.minecraft</text>
</g>
<!-- [root] google_compute_instance.minecraft (expand)&#45;&gt;[root] google_compute_address.minecraft (expand) -->
<g id="edge5" class="edge">
<title>[root] google_compute_instance.minecraft (expand)&#45;&gt;[root] google_compute_address.minecraft (expand)</title>
<path fill="none" stroke="black" d="M455.99,-215.97C499.83,-205.8 555.62,-192.87 601.1,-182.33"/>
<polygon fill="black" stroke="black" points="601.99,-185.72 610.94,-180.05 600.41,-178.9 601.99,-185.72"/>
</g>
<!-- [root] google_compute_instance.minecraft (expand)&#45;&gt;[root] google_compute_disk.minecraft (expand) -->
<g id="edge6" class="edge">
<title>[root] google_compute_instance.minecraft (expand)&#45;&gt;[root] google_compute_disk.minecraft (expand)</title>
<path fill="none" stroke="black" d="M389.42,-215.7C392.57,-207.81 396.38,-198.3 399.88,-189.55"/>
<polygon fill="black" stroke="black" points="403.19,-190.69 403.66,-180.1 396.69,-188.09 403.19,-190.69"/>
</g>
<!-- [root] google_compute_instance.minecraft (expand)&#45;&gt;[root] google_compute_network.minecraft (expand) -->
<g id="edge7" class="edge">
<title>[root] google_compute_instance.minecraft (expand)&#45;&gt;[root] google_compute_network.minecraft (expand)</title>
<path fill="none" stroke="black" d="M322.39,-215.97C287.13,-205.97 242.41,-193.3 205.56,-182.85"/>
<polygon fill="black" stroke="black" points="206.45,-179.47 195.88,-180.11 204.54,-186.2 206.45,-179.47"/>
</g>
<!-- [root] google_service_account.minecraft (expand) -->
<g id="node11" class="node">
<title>[root] google_service_account.minecraft (expand)</title>
<polygon fill="none" stroke="black" points="1094,-180 837,-180 837,-144 1094,-144 1094,-180"/>
<text text-anchor="middle" x="965.5" y="-158.3" font-family="Times,serif" font-size="14.00">google_service_account.minecraft</text>
</g>
<!-- [root] google_compute_instance.minecraft (expand)&#45;&gt;[root] google_service_account.minecraft (expand) -->
<g id="edge8" class="edge">
<title>[root] google_compute_instance.minecraft (expand)&#45;&gt;[root] google_service_account.minecraft (expand)</title>
<path fill="none" stroke="black" d="M518.67,-217C604.33,-206.9 717.49,-193.46 826.59,-180.23"/>
<polygon fill="black" stroke="black" points="827.29,-183.67 836.79,-178.99 826.44,-176.72 827.29,-183.67"/>
</g>
<!-- [root] google_compute_instance_iam_member.switcher (expand) -->
<g id="node5" class="node">
<title>[root] google_compute_instance_iam_member.switcher (expand)</title>
<polygon fill="none" stroke="black" points="1146.5,-324 784.5,-324 784.5,-288 1146.5,-288 1146.5,-324"/>
<text text-anchor="middle" x="965.5" y="-302.3" font-family="Times,serif" font-size="14.00">google_compute_instance_iam_member.switcher</text>
</g>
<!-- [root] google_compute_instance_iam_member.switcher (expand)&#45;&gt;[root] google_compute_instance.minecraft (expand) -->
<g id="edge9" class="edge">
<title>[root] google_compute_instance_iam_member.switcher (expand)&#45;&gt;[root] google_compute_instance.minecraft (expand)</title>
<path fill="none" stroke="black" d="M823.63,-287.97C734.29,-277.24 619.22,-263.42 529.01,-252.59"/>
<polygon fill="black" stroke="black" points="529.32,-249.1 518.97,-251.39 528.48,-256.05 529.32,-249.1"/>
</g>
<!-- [root] google_project_iam_custom_role.minecraftSwitcher (expand) -->
<g id="node8" class="node">
<title>[root] google_project_iam_custom_role.minecraftSwitcher (expand)</title>
<polygon fill="none" stroke="black" points="920.5,-252 536.5,-252 536.5,-216 920.5,-216 920.5,-252"/>
<text text-anchor="middle" x="728.5" y="-230.3" font-family="Times,serif" font-size="14.00">google_project_iam_custom_role.minecraftSwitcher</text>
</g>
<!-- [root] google_compute_instance_iam_member.switcher (expand)&#45;&gt;[root] google_project_iam_custom_role.minecraftSwitcher (expand) -->
<g id="edge10" class="edge">
<title>[root] google_compute_instance_iam_member.switcher (expand)&#45;&gt;[root] google_project_iam_custom_role.minecraftSwitcher (expand)</title>
<path fill="none" stroke="black" d="M907.83,-287.97C874.14,-278.01 831.45,-265.41 796.17,-254.99"/>
<polygon fill="black" stroke="black" points="797.01,-251.59 786.43,-252.11 795.03,-258.3 797.01,-251.59"/>
</g>
<!-- [root] local.enable_switch_access_group (expand) -->
<g id="node14" class="node">
<title>[root] local.enable_switch_access_group (expand)</title>
<ellipse fill="none" stroke="black" cx="1177.5" cy="-234" rx="239.36" ry="18"/>
<text text-anchor="middle" x="1177.5" y="-230.3" font-family="Times,serif" font-size="14.00">[root] local.enable_switch_access_group (expand)</text>
</g>
<!-- [root] google_compute_instance_iam_member.switcher (expand)&#45;&gt;[root] local.enable_switch_access_group (expand) -->
<g id="edge11" class="edge">
<title>[root] google_compute_instance_iam_member.switcher (expand)&#45;&gt;[root] local.enable_switch_access_group (expand)</title>
<path fill="none" stroke="black" d="M1017.09,-287.97C1047.41,-277.95 1085.89,-265.25 1117.55,-254.79"/>
<polygon fill="black" stroke="black" points="1118.75,-258.09 1127.15,-251.63 1116.55,-251.44 1118.75,-258.09"/>
</g>
<!-- [root] local.minecraft_switch_access_group (expand) -->
<g id="node15" class="node">
<title>[root] local.minecraft_switch_access_group (expand)</title>
<ellipse fill="none" stroke="black" cx="1687.5" cy="-234" rx="252.66" ry="18"/>
<text text-anchor="middle" x="1687.5" y="-230.3" font-family="Times,serif" font-size="14.00">[root] local.minecraft_switch_access_group (expand)</text>
</g>
<!-- [root] google_compute_instance_iam_member.switcher (expand)&#45;&gt;[root] local.minecraft_switch_access_group (expand) -->
<g id="edge12" class="edge">
<title>[root] google_compute_instance_iam_member.switcher (expand)&#45;&gt;[root] local.minecraft_switch_access_group (expand)</title>
<path fill="none" stroke="black" d="M1141.2,-287.97C1261.33,-276.32 1419.03,-261.03 1534.1,-249.87"/>
<polygon fill="black" stroke="black" points="1534.79,-253.32 1544.4,-248.87 1534.11,-246.36 1534.79,-253.32"/>
</g>
<!-- [root] google_compute_network.minecraft (expand)&#45;&gt;[root] provider[&quot;registry.terraform.io/hashicorp/google&quot;] -->
<g id="edge13" class="edge">
<title>[root] google_compute_network.minecraft (expand)&#45;&gt;[root] provider[&quot;registry.terraform.io/hashicorp/google&quot;]</title>
<path fill="none" stroke="black" d="M271.32,-144.91C274.41,-144.6 277.47,-144.29 280.5,-144 462.63,-126.28 672.46,-110.77 811.4,-101.18"/>
<polygon fill="black" stroke="black" points="811.96,-104.65 821.69,-100.47 811.47,-97.66 811.96,-104.65"/>
</g>
<!-- [root] google_project_iam_custom_role.instanceLister (expand) -->
<g id="node7" class="node">
<title>[root] google_project_iam_custom_role.instanceLister (expand)</title>
<polygon fill="none" stroke="black" points="1755,-180 1402,-180 1402,-144 1755,-144 1755,-180"/>
<text text-anchor="middle" x="1578.5" y="-158.3" font-family="Times,serif" font-size="14.00">google_project_iam_custom_role.instanceLister</text>
</g>
<!-- [root] google_project_iam_custom_role.instanceLister (expand)&#45;&gt;[root] provider[&quot;registry.terraform.io/hashicorp/google&quot;] -->
<g id="edge14" class="edge">
<title>[root] google_project_iam_custom_role.instanceLister (expand)&#45;&gt;[root] provider[&quot;registry.terraform.io/hashicorp/google&quot;]</title>
<path fill="none" stroke="black" d="M1429.33,-143.97C1320.89,-131.58 1176.4,-115.08 1077.68,-103.81"/>
<polygon fill="black" stroke="black" points="1078,-100.32 1067.67,-102.67 1077.21,-107.28 1078,-100.32"/>
</g>
<!-- [root] google_project_iam_custom_role.minecraftSwitcher (expand)&#45;&gt;[root] provider[&quot;registry.terraform.io/hashicorp/google&quot;] -->
<g id="edge15" class="edge">
<title>[root] google_project_iam_custom_role.minecraftSwitcher (expand)&#45;&gt;[root] provider[&quot;registry.terraform.io/hashicorp/google&quot;]</title>
<path fill="none" stroke="black" d="M920.75,-216.83C1006.14,-207.65 1090.47,-195 1103.5,-180 1113.99,-167.92 1112.56,-157.19 1103.5,-144 1091.76,-126.91 1073.69,-115.33 1054.45,-107.48"/>
<polygon fill="black" stroke="black" points="1055.52,-104.15 1044.93,-103.92 1053.07,-110.71 1055.52,-104.15"/>
</g>
<!-- [root] google_project_iam_member.computeViewer (expand) -->
<g id="node9" class="node">
<title>[root] google_project_iam_member.computeViewer (expand)</title>
<polygon fill="none" stroke="black" points="1498.5,-324 1164.5,-324 1164.5,-288 1498.5,-288 1498.5,-324"/>
<text text-anchor="middle" x="1331.5" y="-302.3" font-family="Times,serif" font-size="14.00">google_project_iam_member.computeViewer</text>
</g>
<!-- [root] google_project_iam_member.computeViewer (expand)&#45;&gt;[root] google_project_iam_custom_role.instanceLister (expand) -->
<g id="edge16" class="edge">
<title>[root] google_project_iam_member.computeViewer (expand)&#45;&gt;[root] google_project_iam_custom_role.instanceLister (expand)</title>
<path fill="none" stroke="black" d="M1498.72,-288.87C1502.01,-288.58 1505.27,-288.29 1508.5,-288 1557.47,-283.65 1916.18,-288.15 1949.5,-252 1960.34,-240.24 1959.98,-228.09 1949.5,-216 1924.51,-187.19 1844.6,-173.65 1765.32,-167.44"/>
<polygon fill="black" stroke="black" points="1765.39,-163.93 1755.15,-166.68 1764.87,-170.91 1765.39,-163.93"/>
</g>
<!-- [root] google_project_iam_member.computeViewer (expand)&#45;&gt;[root] local.enable_switch_access_group (expand) -->
<g id="edge17" class="edge">
<title>[root] google_project_iam_member.computeViewer (expand)&#45;&gt;[root] local.enable_switch_access_group (expand)</title>
<path fill="none" stroke="black" d="M1293.83,-287.88C1272.71,-278.28 1246.2,-266.23 1223.83,-256.06"/>
<polygon fill="black" stroke="black" points="1225.07,-252.78 1214.52,-251.83 1222.17,-259.15 1225.07,-252.78"/>
</g>
<!-- [root] google_project_iam_member.computeViewer (expand)&#45;&gt;[root] local.minecraft_switch_access_group (expand) -->
<g id="edge18" class="edge">
<title>[root] google_project_iam_member.computeViewer (expand)&#45;&gt;[root] local.minecraft_switch_access_group (expand)</title>
<path fill="none" stroke="black" d="M1418.13,-287.97C1471.9,-277.39 1540.93,-263.82 1595.64,-253.06"/>
<polygon fill="black" stroke="black" points="1596.55,-256.45 1605.69,-251.09 1595.2,-249.58 1596.55,-256.45"/>
</g>
<!-- [root] google_project_iam_member.projectBrowsers (expand) -->
<g id="node10" class="node">
<title>[root] google_project_iam_member.projectBrowsers (expand)</title>
<polygon fill="none" stroke="black" points="1858,-324 1517,-324 1517,-288 1858,-288 1858,-324"/>
<text text-anchor="middle" x="1687.5" y="-302.3" font-family="Times,serif" font-size="14.00">google_project_iam_member.projectBrowsers</text>
</g>
<!-- [root] google_project_iam_member.projectBrowsers (expand)&#45;&gt;[root] provider[&quot;registry.terraform.io/hashicorp/google&quot;] -->
<g id="edge21" class="edge">
<title>[root] google_project_iam_member.projectBrowsers (expand)&#45;&gt;[root] provider[&quot;registry.terraform.io/hashicorp/google&quot;]</title>
<path fill="none" stroke="black" d="M1858.29,-290.5C1907.05,-282.61 1951.17,-270.51 1966.5,-252 1976.7,-239.68 1975.72,-229.08 1966.5,-216 1911.57,-138.11 1857.83,-163.34 1764.5,-144 1655.37,-121.39 1369.51,-106.31 1171.11,-98.2"/>
<polygon fill="black" stroke="black" points="1170.98,-94.69 1160.84,-97.78 1170.69,-101.68 1170.98,-94.69"/>
</g>
<!-- [root] google_project_iam_member.projectBrowsers (expand)&#45;&gt;[root] local.enable_switch_access_group (expand) -->
<g id="edge19" class="edge">
<title>[root] google_project_iam_member.projectBrowsers (expand)&#45;&gt;[root] local.enable_switch_access_group (expand)</title>
<path fill="none" stroke="black" d="M1563.39,-287.97C1482.38,-276.85 1377.19,-262.41 1297.1,-251.42"/>
<polygon fill="black" stroke="black" points="1297.35,-247.92 1286.97,-250.03 1296.4,-254.85 1297.35,-247.92"/>
</g>
<!-- [root] google_project_iam_member.projectBrowsers (expand)&#45;&gt;[root] local.minecraft_switch_access_group (expand) -->
<g id="edge20" class="edge">
<title>[root] google_project_iam_member.projectBrowsers (expand)&#45;&gt;[root] local.minecraft_switch_access_group (expand)</title>
<path fill="none" stroke="black" d="M1687.5,-287.7C1687.5,-279.98 1687.5,-270.71 1687.5,-262.11"/>
<polygon fill="black" stroke="black" points="1691,-262.1 1687.5,-252.1 1684,-262.1 1691,-262.1"/>
</g>
<!-- [root] google_service_account.minecraft (expand)&#45;&gt;[root] provider[&quot;registry.terraform.io/hashicorp/google&quot;] -->
<g id="edge22" class="edge">
<title>[root] google_service_account.minecraft (expand)&#45;&gt;[root] provider[&quot;registry.terraform.io/hashicorp/google&quot;]</title>
<path fill="none" stroke="black" d="M965.5,-143.7C965.5,-135.98 965.5,-126.71 965.5,-118.11"/>
<polygon fill="black" stroke="black" points="969,-118.1 965.5,-108.1 962,-118.1 969,-118.1"/>
</g>
<!-- [root] local.project (expand) -->
<g id="node17" class="node">
<title>[root] local.project (expand)</title>
<ellipse fill="none" stroke="black" cx="817.5" cy="-18" rx="139.98" ry="18"/>
<text text-anchor="middle" x="817.5" y="-14.3" font-family="Times,serif" font-size="14.00">[root] local.project (expand)</text>
</g>
<!-- [root] provider[&quot;registry.terraform.io/hashicorp/google&quot;]&#45;&gt;[root] local.project (expand) -->
<g id="edge27" class="edge">
<title>[root] provider[&quot;registry.terraform.io/hashicorp/google&quot;]&#45;&gt;[root] local.project (expand)</title>
<path fill="none" stroke="black" d="M933.02,-73.64C912.08,-63.73 884.58,-50.73 861.67,-39.89"/>
<polygon fill="black" stroke="black" points="863.02,-36.66 852.49,-35.55 860.03,-42.99 863.02,-36.66"/>
</g>
<!-- [root] local.region (expand) -->
<g id="node18" class="node">
<title>[root] local.region (expand)</title>
<ellipse fill="none" stroke="black" cx="1112.5" cy="-18" rx="137.28" ry="18"/>
<text text-anchor="middle" x="1112.5" y="-14.3" font-family="Times,serif" font-size="14.00">[root] local.region (expand)</text>
</g>
<!-- [root] provider[&quot;registry.terraform.io/hashicorp/google&quot;]&#45;&gt;[root] local.region (expand) -->
<g id="edge28" class="edge">
<title>[root] provider[&quot;registry.terraform.io/hashicorp/google&quot;]&#45;&gt;[root] local.region (expand)</title>
<path fill="none" stroke="black" d="M997.76,-73.64C1018.63,-63.7 1046.07,-50.64 1068.87,-39.77"/>
<polygon fill="black" stroke="black" points="1070.49,-42.88 1078.01,-35.42 1067.48,-36.56 1070.49,-42.88"/>
</g>
<!-- [root] provider[&quot;registry.terraform.io/hashicorp/google&quot;] (close) -->
<g id="node16" class="node">
<title>[root] provider[&quot;registry.terraform.io/hashicorp/google&quot;] (close)</title>
<ellipse fill="none" stroke="black" cx="1148.5" cy="-378" rx="304.65" ry="18"/>
<text text-anchor="middle" x="1148.5" y="-374.3" font-family="Times,serif" font-size="14.00">[root] provider[&quot;registry.terraform.io/hashicorp/google&quot;] (close)</text>
</g>
<!-- [root] provider[&quot;registry.terraform.io/hashicorp/google&quot;] (close)&#45;&gt;[root] google_compute_firewall.minecraft (expand) -->
<g id="edge23" class="edge">
<title>[root] provider[&quot;registry.terraform.io/hashicorp/google&quot;] (close)&#45;&gt;[root] google_compute_firewall.minecraft (expand)</title>
<path fill="none" stroke="black" d="M995.11,-362.41C865.8,-350.11 682.15,-332.65 555.78,-320.63"/>
<polygon fill="black" stroke="black" points="555.93,-317.13 545.64,-319.66 555.26,-324.09 555.93,-317.13"/>
</g>
<!-- [root] provider[&quot;registry.terraform.io/hashicorp/google&quot;] (close)&#45;&gt;[root] google_compute_instance_iam_member.switcher (expand) -->
<g id="edge24" class="edge">
<title>[root] provider[&quot;registry.terraform.io/hashicorp/google&quot;] (close)&#45;&gt;[root] google_compute_instance_iam_member.switcher (expand)</title>
<path fill="none" stroke="black" d="M1104.2,-360.05C1078.76,-350.33 1046.63,-338.03 1019.69,-327.73"/>
<polygon fill="black" stroke="black" points="1020.62,-324.34 1010.03,-324.03 1018.12,-330.87 1020.62,-324.34"/>
</g>
<!-- [root] provider[&quot;registry.terraform.io/hashicorp/google&quot;] (close)&#45;&gt;[root] google_project_iam_member.computeViewer (expand) -->
<g id="edge25" class="edge">
<title>[root] provider[&quot;registry.terraform.io/hashicorp/google&quot;] (close)&#45;&gt;[root] google_project_iam_member.computeViewer (expand)</title>
<path fill="none" stroke="black" d="M1192.8,-360.05C1218.24,-350.33 1250.37,-338.03 1277.31,-327.73"/>
<polygon fill="black" stroke="black" points="1278.88,-330.87 1286.97,-324.03 1276.38,-324.34 1278.88,-330.87"/>
</g>
<!-- [root] provider[&quot;registry.terraform.io/hashicorp/google&quot;] (close)&#45;&gt;[root] google_project_iam_member.projectBrowsers (expand) -->
<g id="edge26" class="edge">
<title>[root] provider[&quot;registry.terraform.io/hashicorp/google&quot;] (close)&#45;&gt;[root] google_project_iam_member.projectBrowsers (expand)</title>
<path fill="none" stroke="black" d="M1268.46,-361.42C1350.66,-350.75 1460.03,-336.54 1546.42,-325.32"/>
<polygon fill="black" stroke="black" points="1547.11,-328.76 1556.57,-324 1546.21,-321.82 1547.11,-328.76"/>
</g>
<!-- [root] root -->
<g id="node19" class="node">
<title>[root] root</title>
<ellipse fill="none" stroke="black" cx="1148.5" cy="-450" rx="58.49" ry="18"/>
<text text-anchor="middle" x="1148.5" y="-446.3" font-family="Times,serif" font-size="14.00">[root] root</text>
</g>
<!-- [root] root&#45;&gt;[root] provider[&quot;registry.terraform.io/hashicorp/google&quot;] (close) -->
<g id="edge29" class="edge">
<title>[root] root&#45;&gt;[root] provider[&quot;registry.terraform.io/hashicorp/google&quot;] (close)</title>
<path fill="none" stroke="black" d="M1148.5,-431.7C1148.5,-423.98 1148.5,-414.71 1148.5,-406.11"/>
<polygon fill="black" stroke="black" points="1152,-406.1 1148.5,-396.1 1145,-406.1 1152,-406.1"/>
</g>
</g>
</svg>
