<?xml version="1.0" encoding="UTF-8" standalone="no"?>
<!DOCTYPE svg PUBLIC "-//W3C//DTD SVG 1.1//EN"
 "http://www.w3.org/Graphics/SVG/1.1/DTD/svg11.dtd">
<!-- Generated by graphviz version 2.43.0 (0)
 -->
<!-- Title: %3 Pages: 1 -->
<svg width="1574pt" height="476pt"
 viewBox="0.00 0.00 1574.20 476.00" xmlns="http://www.w3.org/2000/svg" xmlns:xlink="http://www.w3.org/1999/xlink">
<g id="graph0" class="graph" transform="scale(1 1) rotate(0) translate(4 472)">
<title>%3</title>
<polygon fill="white" stroke="transparent" points="-4,4 -4,-472 1570.2,-472 1570.2,4 -4,4"/>
<!-- [root] data.google_project.project (expand) -->
<g id="node1" class="node">
<title>[root] data.google_project.project (expand)</title>
<polygon fill="none" stroke="black" points="825,-180 613,-180 613,-144 825,-144 825,-180"/>
<text text-anchor="middle" x="719" y="-158.3" font-family="Times,serif" font-size="14.00">data.google_project.project</text>
</g>
<!-- [root] provider[&quot;registry.terraform.io/hashicorp/google&quot;] -->
<g id="node11" class="node">
<title>[root] provider[&quot;registry.terraform.io/hashicorp/google&quot;]</title>
<polygon fill="none" stroke="black" points="719,-108 375.47,-90 719,-72 1062.53,-90 719,-108"/>
<text text-anchor="middle" x="719" y="-86.3" font-family="Times,serif" font-size="14.00">provider[&quot;registry.terraform.io/hashicorp/google&quot;]</text>
</g>
<!-- [root] data.google_project.project (expand)&#45;&gt;[root] provider[&quot;registry.terraform.io/hashicorp/google&quot;] -->
<g id="edge1" class="edge">
<title>[root] data.google_project.project (expand)&#45;&gt;[root] provider[&quot;registry.terraform.io/hashicorp/google&quot;]</title>
<path fill="none" stroke="black" d="M719,-143.7C719,-135.98 719,-126.71 719,-118.11"/>
<polygon fill="black" stroke="black" points="722.5,-118.1 719,-108.1 715.5,-118.1 722.5,-118.1"/>
</g>
<!-- [root] google_compute_firewall.flask (expand) -->
<g id="node2" class="node">
<title>[root] google_compute_firewall.flask (expand)</title>
<polygon fill="none" stroke="black" points="526,-252 296,-252 296,-216 526,-216 526,-252"/>
<text text-anchor="middle" x="411" y="-230.3" font-family="Times,serif" font-size="14.00">google_compute_firewall.flask</text>
</g>
<!-- [root] google_compute_network.vpc_network (expand) -->
<g id="node5" class="node">
<title>[root] google_compute_network.vpc_network (expand)</title>
<polygon fill="none" stroke="black" points="576,-180 284,-180 284,-144 576,-144 576,-180"/>
<text text-anchor="middle" x="430" y="-158.3" font-family="Times,serif" font-size="14.00">google_compute_network.vpc_network</text>
</g>
<!-- [root] google_compute_firewall.flask (expand)&#45;&gt;[root] google_compute_network.vpc_network (expand) -->
<g id="edge2" class="edge">
<title>[root] google_compute_firewall.flask (expand)&#45;&gt;[root] google_compute_network.vpc_network (expand)</title>
<path fill="none" stroke="black" d="M415.7,-215.7C417.81,-207.9 420.36,-198.51 422.72,-189.83"/>
<polygon fill="black" stroke="black" points="426.12,-190.67 425.36,-180.1 419.36,-188.84 426.12,-190.67"/>
</g>
<!-- [root] google_compute_firewall.ssh (expand) -->
<g id="node3" class="node">
<title>[root] google_compute_firewall.ssh (expand)</title>
<polygon fill="none" stroke="black" points="663.5,-324 442.5,-324 442.5,-288 663.5,-288 663.5,-324"/>
<text text-anchor="middle" x="553" y="-302.3" font-family="Times,serif" font-size="14.00">google_compute_firewall.ssh</text>
</g>
<!-- [root] google_compute_firewall.ssh (expand)&#45;&gt;[root] google_compute_network.vpc_network (expand) -->
<g id="edge3" class="edge">
<title>[root] google_compute_firewall.ssh (expand)&#45;&gt;[root] google_compute_network.vpc_network (expand)</title>
<path fill="none" stroke="black" d="M553.77,-287.8C553.76,-268.43 550.96,-236.93 535,-216 524.8,-202.62 510.29,-192.36 495.29,-184.6"/>
<polygon fill="black" stroke="black" points="496.46,-181.28 485.93,-180.09 493.42,-187.59 496.46,-181.28"/>
</g>
<!-- [root] google_compute_instance.default (expand) -->
<g id="node4" class="node">
<title>[root] google_compute_instance.default (expand)</title>
<polygon fill="none" stroke="black" points="326,-324 72,-324 72,-288 326,-288 326,-324"/>
<text text-anchor="middle" x="199" y="-302.3" font-family="Times,serif" font-size="14.00">google_compute_instance.default</text>
</g>
<!-- [root] google_compute_subnetwork.default (expand) -->
<g id="node6" class="node">
<title>[root] google_compute_subnetwork.default (expand)</title>
<polygon fill="none" stroke="black" points="278,-252 0,-252 0,-216 278,-216 278,-252"/>
<text text-anchor="middle" x="139" y="-230.3" font-family="Times,serif" font-size="14.00">google_compute_subnetwork.default</text>
</g>
<!-- [root] google_compute_instance.default (expand)&#45;&gt;[root] google_compute_subnetwork.default (expand) -->
<g id="edge4" class="edge">
<title>[root] google_compute_instance.default (expand)&#45;&gt;[root] google_compute_subnetwork.default (expand)</title>
<path fill="none" stroke="black" d="M184.17,-287.7C176.98,-279.3 168.2,-269.07 160.31,-259.86"/>
<polygon fill="black" stroke="black" points="162.83,-257.42 153.66,-252.1 157.51,-261.97 162.83,-257.42"/>
</g>
<!-- [root] google_compute_network.vpc_network (expand)&#45;&gt;[root] provider[&quot;registry.terraform.io/hashicorp/google&quot;] -->
<g id="edge5" class="edge">
<title>[root] google_compute_network.vpc_network (expand)&#45;&gt;[root] provider[&quot;registry.terraform.io/hashicorp/google&quot;]</title>
<path fill="none" stroke="black" d="M500.33,-143.97C546.25,-132.84 605.88,-118.4 651.27,-107.41"/>
<polygon fill="black" stroke="black" points="652.12,-110.8 661.02,-105.04 650.47,-104 652.12,-110.8"/>
</g>
<!-- [root] google_compute_subnetwork.default (expand)&#45;&gt;[root] google_compute_network.vpc_network (expand) -->
<g id="edge6" class="edge">
<title>[root] google_compute_subnetwork.default (expand)&#45;&gt;[root] google_compute_network.vpc_network (expand)</title>
<path fill="none" stroke="black" d="M209.81,-215.97C251.97,-205.83 305.59,-192.93 349.37,-182.4"/>
<polygon fill="black" stroke="black" points="350.22,-185.79 359.12,-180.05 348.58,-178.99 350.22,-185.79"/>
</g>
<!-- [root] google_kms_crypto_key.terraform_state_bucket (expand) -->
<g id="node7" class="node">
<title>[root] google_kms_crypto_key.terraform_state_bucket (expand)</title>
<polygon fill="none" stroke="black" points="1226.5,-252 873.5,-252 873.5,-216 1226.5,-216 1226.5,-252"/>
<text text-anchor="middle" x="1050" y="-230.3" font-family="Times,serif" font-size="14.00">google_kms_crypto_key.terraform_state_bucket</text>
</g>
<!-- [root] google_kms_key_ring.terraform_state (expand) -->
<g id="node8" class="node">
<title>[root] google_kms_key_ring.terraform_state (expand)</title>
<polygon fill="none" stroke="black" points="1192,-180 908,-180 908,-144 1192,-144 1192,-180"/>
<text text-anchor="middle" x="1050" y="-158.3" font-family="Times,serif" font-size="14.00">google_kms_key_ring.terraform_state</text>
</g>
<!-- [root] google_kms_crypto_key.terraform_state_bucket (expand)&#45;&gt;[root] google_kms_key_ring.terraform_state (expand) -->
<g id="edge7" class="edge">
<title>[root] google_kms_crypto_key.terraform_state_bucket (expand)&#45;&gt;[root] google_kms_key_ring.terraform_state (expand)</title>
<path fill="none" stroke="black" d="M1050,-215.7C1050,-207.98 1050,-198.71 1050,-190.11"/>
<polygon fill="black" stroke="black" points="1053.5,-190.1 1050,-180.1 1046.5,-190.1 1053.5,-190.1"/>
</g>
<!-- [root] google_kms_key_ring.terraform_state (expand)&#45;&gt;[root] provider[&quot;registry.terraform.io/hashicorp/google&quot;] -->
<g id="edge8" class="edge">
<title>[root] google_kms_key_ring.terraform_state (expand)&#45;&gt;[root] provider[&quot;registry.terraform.io/hashicorp/google&quot;]</title>
<path fill="none" stroke="black" d="M969.45,-143.97C915.79,-132.62 845.78,-117.81 793.42,-106.74"/>
<polygon fill="black" stroke="black" points="794.04,-103.29 783.53,-104.65 792.59,-110.14 794.04,-103.29"/>
</g>
<!-- [root] random_id.bucket_prefix (expand) -->
<g id="node13" class="node">
<title>[root] random_id.bucket_prefix (expand)</title>
<polygon fill="none" stroke="black" points="1312,-108 1120,-108 1120,-72 1312,-72 1312,-108"/>
<text text-anchor="middle" x="1216" y="-86.3" font-family="Times,serif" font-size="14.00">random_id.bucket_prefix</text>
</g>
<!-- [root] google_kms_key_ring.terraform_state (expand)&#45;&gt;[root] random_id.bucket_prefix (expand) -->
<g id="edge9" class="edge">
<title>[root] google_kms_key_ring.terraform_state (expand)&#45;&gt;[root] random_id.bucket_prefix (expand)</title>
<path fill="none" stroke="black" d="M1090.61,-143.88C1113.4,-134.26 1142.03,-122.19 1166.17,-112.01"/>
<polygon fill="black" stroke="black" points="1167.67,-115.18 1175.52,-108.07 1164.95,-108.73 1167.67,-115.18"/>
</g>
<!-- [root] google_project_iam_member.default (expand) -->
<g id="node9" class="node">
<title>[root] google_project_iam_member.default (expand)</title>
<polygon fill="none" stroke="black" points="855.5,-252 582.5,-252 582.5,-216 855.5,-216 855.5,-252"/>
<text text-anchor="middle" x="719" y="-230.3" font-family="Times,serif" font-size="14.00">google_project_iam_member.default</text>
</g>
<!-- [root] google_project_iam_member.default (expand)&#45;&gt;[root] data.google_project.project (expand) -->
<g id="edge10" class="edge">
<title>[root] google_project_iam_member.default (expand)&#45;&gt;[root] data.google_project.project (expand)</title>
<path fill="none" stroke="black" d="M719,-215.7C719,-207.98 719,-198.71 719,-190.11"/>
<polygon fill="black" stroke="black" points="722.5,-190.1 719,-180.1 715.5,-190.1 722.5,-190.1"/>
</g>
<!-- [root] google_storage_bucket.default (expand) -->
<g id="node10" class="node">
<title>[root] google_storage_bucket.default (expand)</title>
<polygon fill="none" stroke="black" points="916,-324 682,-324 682,-288 916,-288 916,-324"/>
<text text-anchor="middle" x="799" y="-302.3" font-family="Times,serif" font-size="14.00">google_storage_bucket.default</text>
</g>
<!-- [root] google_storage_bucket.default (expand)&#45;&gt;[root] google_kms_crypto_key.terraform_state_bucket (expand) -->
<g id="edge11" class="edge">
<title>[root] google_storage_bucket.default (expand)&#45;&gt;[root] google_kms_crypto_key.terraform_state_bucket (expand)</title>
<path fill="none" stroke="black" d="M860.08,-287.97C895.91,-277.97 941.36,-265.3 978.81,-254.85"/>
<polygon fill="black" stroke="black" points="979.95,-258.17 988.65,-252.11 978.07,-251.43 979.95,-258.17"/>
</g>
<!-- [root] google_storage_bucket.default (expand)&#45;&gt;[root] google_project_iam_member.default (expand) -->
<g id="edge12" class="edge">
<title>[root] google_storage_bucket.default (expand)&#45;&gt;[root] google_project_iam_member.default (expand)</title>
<path fill="none" stroke="black" d="M779.22,-287.7C769.25,-278.97 756.99,-268.24 746.14,-258.75"/>
<polygon fill="black" stroke="black" points="748.38,-256.06 738.55,-252.1 743.77,-261.32 748.38,-256.06"/>
</g>
<!-- [root] provider[&quot;registry.terraform.io/hashicorp/random&quot;] -->
<g id="node12" class="node">
<title>[root] provider[&quot;registry.terraform.io/hashicorp/random&quot;]</title>
<polygon fill="none" stroke="black" points="1216,-36 865.6,-18 1216,0 1566.4,-18 1216,-36"/>
<text text-anchor="middle" x="1216" y="-14.3" font-family="Times,serif" font-size="14.00">provider[&quot;registry.terraform.io/hashicorp/random&quot;]</text>
</g>
<!-- [root] random_id.bucket_prefix (expand)&#45;&gt;[root] provider[&quot;registry.terraform.io/hashicorp/random&quot;] -->
<g id="edge18" class="edge">
<title>[root] random_id.bucket_prefix (expand)&#45;&gt;[root] provider[&quot;registry.terraform.io/hashicorp/random&quot;]</title>
<path fill="none" stroke="black" d="M1216,-71.7C1216,-63.98 1216,-54.71 1216,-46.11"/>
<polygon fill="black" stroke="black" points="1219.5,-46.1 1216,-36.1 1212.5,-46.1 1219.5,-46.1"/>
</g>
<!-- [root] provider[&quot;registry.terraform.io/hashicorp/google&quot;] (close) -->
<g id="node14" class="node">
<title>[root] provider[&quot;registry.terraform.io/hashicorp/google&quot;] (close)</title>
<ellipse fill="none" stroke="black" cx="553" cy="-378" rx="304.65" ry="18"/>
<text text-anchor="middle" x="553" y="-374.3" font-family="Times,serif" font-size="14.00">[root] provider[&quot;registry.terraform.io/hashicorp/google&quot;] (close)</text>
</g>
<!-- [root] provider[&quot;registry.terraform.io/hashicorp/google&quot;] (close)&#45;&gt;[root] google_compute_firewall.flask (expand) -->
<g id="edge13" class="edge">
<title>[root] provider[&quot;registry.terraform.io/hashicorp/google&quot;] (close)&#45;&gt;[root] google_compute_firewall.flask (expand)</title>
<path fill="none" stroke="black" d="M488.4,-360.32C468.48,-352.29 448.1,-340.66 434,-324 419.39,-306.73 413.9,-281.3 411.92,-262.04"/>
<polygon fill="black" stroke="black" points="415.41,-261.76 411.14,-252.06 408.43,-262.31 415.41,-261.76"/>
</g>
<!-- [root] provider[&quot;registry.terraform.io/hashicorp/google&quot;] (close)&#45;&gt;[root] google_compute_firewall.ssh (expand) -->
<g id="edge14" class="edge">
<title>[root] provider[&quot;registry.terraform.io/hashicorp/google&quot;] (close)&#45;&gt;[root] google_compute_firewall.ssh (expand)</title>
<path fill="none" stroke="black" d="M553,-359.7C553,-351.98 553,-342.71 553,-334.11"/>
<polygon fill="black" stroke="black" points="556.5,-334.1 553,-324.1 549.5,-334.1 556.5,-334.1"/>
</g>
<!-- [root] provider[&quot;registry.terraform.io/hashicorp/google&quot;] (close)&#45;&gt;[root] google_compute_instance.default (expand) -->
<g id="edge15" class="edge">
<title>[root] provider[&quot;registry.terraform.io/hashicorp/google&quot;] (close)&#45;&gt;[root] google_compute_instance.default (expand)</title>
<path fill="none" stroke="black" d="M470,-360.59C417.67,-350.24 349.9,-336.84 295.22,-326.03"/>
<polygon fill="black" stroke="black" points="295.66,-322.55 285.17,-324.04 294.3,-329.41 295.66,-322.55"/>
</g>
<!-- [root] provider[&quot;registry.terraform.io/hashicorp/google&quot;] (close)&#45;&gt;[root] google_storage_bucket.default (expand) -->
<g id="edge16" class="edge">
<title>[root] provider[&quot;registry.terraform.io/hashicorp/google&quot;] (close)&#45;&gt;[root] google_storage_bucket.default (expand)</title>
<path fill="none" stroke="black" d="M611.61,-360.32C646.96,-350.26 692.2,-337.39 729.37,-326.81"/>
<polygon fill="black" stroke="black" points="730.47,-330.14 739.13,-324.04 728.55,-323.41 730.47,-330.14"/>
</g>
<!-- [root] provider[&quot;registry.terraform.io/hashicorp/random&quot;] (close) -->
<g id="node15" class="node">
<title>[root] provider[&quot;registry.terraform.io/hashicorp/random&quot;] (close)</title>
<ellipse fill="none" stroke="black" cx="1220" cy="-378" rx="309.25" ry="18"/>
<text text-anchor="middle" x="1220" y="-374.3" font-family="Times,serif" font-size="14.00">[root] provider[&quot;registry.terraform.io/hashicorp/random&quot;] (close)</text>
</g>
<!-- [root] provider[&quot;registry.terraform.io/hashicorp/random&quot;] (close)&#45;&gt;[root] random_id.bucket_prefix (expand) -->
<g id="edge17" class="edge">
<title>[root] provider[&quot;registry.terraform.io/hashicorp/random&quot;] (close)&#45;&gt;[root] random_id.bucket_prefix (expand)</title>
<path fill="none" stroke="black" d="M1223.77,-359.63C1229.71,-330.13 1240.16,-268.36 1236,-216 1233.3,-182.07 1226.55,-143.44 1221.63,-118.22"/>
<polygon fill="black" stroke="black" points="1225.04,-117.41 1219.66,-108.29 1218.18,-118.78 1225.04,-117.41"/>
</g>
<!-- [root] root -->
<g id="node16" class="node">
<title>[root] root</title>
<ellipse fill="none" stroke="black" cx="869" cy="-450" rx="58.49" ry="18"/>
<text text-anchor="middle" x="869" y="-446.3" font-family="Times,serif" font-size="14.00">[root] root</text>
</g>
<!-- [root] root&#45;&gt;[root] provider[&quot;registry.terraform.io/hashicorp/google&quot;] (close) -->
<g id="edge19" class="edge">
<title>[root] root&#45;&gt;[root] provider[&quot;registry.terraform.io/hashicorp/google&quot;] (close)</title>
<path fill="none" stroke="black" d="M823.05,-438.82C774.49,-428.06 696.83,-410.86 637.23,-397.66"/>
<polygon fill="black" stroke="black" points="637.97,-394.24 627.45,-395.49 636.45,-401.07 637.97,-394.24"/>
</g>
<!-- [root] root&#45;&gt;[root] provider[&quot;registry.terraform.io/hashicorp/random&quot;] (close) -->
<g id="edge20" class="edge">
<title>[root] root&#45;&gt;[root] provider[&quot;registry.terraform.io/hashicorp/random&quot;] (close)</title>
<path fill="none" stroke="black" d="M916.7,-439.49C970.75,-428.71 1060.1,-410.89 1127.86,-397.38"/>
<polygon fill="black" stroke="black" points="1128.57,-400.8 1137.7,-395.41 1127.2,-393.94 1128.57,-400.8"/>
</g>
</g>
</svg>
